<svg xmlns="http://www.w3.org/2000/svg" version="1.1" xmlns:xlink="http://www.w3.org/1999/xlink" xmlns:svgjs="http://svgjs.dev/svgjs" width="100%" height="100%" viewBox="0 0 1000 600"><rect width="1000" height="600" x="0" y="0" fill="black"/><g><circle r="166.66666666666666" cx="350.2957407633463" cy="372.517938633762" fill="green" transform="matrix(0.6807200681473536,0,0,0.6807200681473535,0,46.41954124368246)"/><path d="M325.6011086896189 443.56575178396054L325.6011086896189 443.56575178396054Q324.1092223932954 443.56575178396054 321.936826558298 442.33559992558844Q319.7644307233006 441.10544806721646 319.7644307233006 439.2209601139657L319.7644307233006 439.2209601139657Q319.7644307233006 436.0277999709575 320.5234605933599 433.09637426590075Q321.28249046341926 430.19112200463917 321.6489186765514 427.18117596819695L321.6489186765514 427.18117596819695L320.889888806492 427.7308182878951L318.6389726401092 438.4881036877015Q316.38805647372635 435.2687701008981 316.38805647372635 432.0756099578899L316.38805647372635 432.0756099578899Q316.38805647372635 431.31658008783063 316.75448468685846 430.5575502177712L316.75448468685846 430.5575502177712Q313.168722886923 432.258824064456 309.50444075560205 433.38428214764735Q305.81398518048604 434.5097402308388 301.86179516741845 434.5097402308388L301.86179516741845 434.5097402308388Q291.6803255311054 434.5097402308388 282.7290077531643 431.89239585132384Q273.7776899752232 429.2488780280138 264.7478518658967 425.2966880149462L264.7478518658967 425.2966880149462L263.8056078892713 422.83638429820223Q254.74959633614964 419.0674083917006 247.13312419176117 412.65491466188905Q239.49047860357757 406.2424209320775 233.9417085190059 398.0501330241957Q228.3667649906391 389.857845116314 225.25212517901633 380.43540535006025Q222.1636588111887 371.0129655838065 222.1636588111887 361.22409760442065L222.1636588111887 361.22409760442065Q222.1636588111887 352.74390181479225 224.51926875275214 344.6301342382959Q226.87487869431558 336.51636666179957 231.58609857744247 329.55423061228987L231.58609857744247 329.55423061228987L230.4344670504559 328.97841484879666Q225.9326347176902 335.96672434210143 223.18442311919952 343.8711043682366Q220.462384964504 351.8016578381669 220.462384964504 360.2818536277953L220.462384964504 360.2818536277953Q220.462384964504 368.5526618670624 222.71330113088683 376.95433732530535Q224.99039074106483 385.3298393397531 229.12579486069842 393.0510052593222Q233.26119898033204 400.7983446226864 238.91466284008428 407.394052459064L238.91466284008428 407.394052459064Q244.56812669983654 413.59715863851443 251.37322208657537 418.12516441507535L251.37322208657537 418.12516441507535Q244.77751425019773 413.98976029544167 238.91466284008428 407.94369477876216L238.91466284008428 407.94369477876216Q233.07798487376598 401.5312010489506 228.8378869789518 393.91472890456214Q224.5977890841376 386.2720833163785 222.1636588111887 377.8965813019307Q219.70335509444465 369.4949058436878 219.70335509444465 361.5905258175527L219.70335509444465 361.5905258175527Q219.70335509444465 347.6400802747381 226.01115504907565 335.8620305669209Q232.31895500370666 324.0839808591037 242.50042464001973 315.6037850694753Q252.68189427633286 307.1235892798469 265.5854020673415 302.33384906533456Q278.4889098583501 297.5179354070271 291.6803255311054 297.5179354070271L291.6803255311054 297.5179354070271Q300.1605213207338 297.5179354070271 307.9863810154834 299.76885157340996Q315.8122407102331 302.04594118358796 323.71662073636816 304.689459006898L323.71662073636816 304.689459006898Q322.7743767597428 305.23910132659614 322.69585642835733 306.1813453032215Q322.59116265317675 307.1235892798469 322.40794854661067 307.9873129250868Q322.22473444004464 308.82486312653157 321.75361245173195 309.4006788900249Q321.28249046341926 309.95032120972303 319.7644307233006 309.95032120972303L319.7644307233006 309.95032120972303Q317.33030045035173 309.95032120972303 314.9746905087883 309.19129133966374Q312.61908056722484 308.4584349133995 310.5252050636129 307.51619093677414L310.5252050636129 307.51619093677414L309.97556274391474 309.95032120972303Q311.2842349336722 310.34292286665027 313.45663076866964 311.46838094984173Q315.62902660366706 312.5938390330331 317.8014224386644 314.00720499797114Q319.9476448298667 315.4205709629092 321.5703983451659 317.121844809594Q323.16697841667 318.82311865627867 323.16697841667 320.3150049526022L323.16697841667 320.3150049526022Q323.16697841667 322.5920945627802 321.3610107948047 323.06321655109286Q319.58121661673454 323.53433853940555 317.87994277004987 323.53433853940555L317.87994277004987 323.53433853940555Q312.2264789102976 323.53433853940555 306.57301505054534 321.8330646927208Q300.9195511907931 320.1317908460361 295.2660873310408 320.1317908460361L295.2660873310408 320.1317908460361Q285.08461769472774 320.1317908460361 275.66217792847397 322.95852277591223Q266.2397381622202 325.78525470578836 259.0943880061444 331.150810683794Q251.9228644062735 336.51636666179957 247.60424618007386 344.3422263565493Q243.25945451007908 352.1680860512989 243.25945451007908 362.349555687612L243.25945451007908 362.349555687612Q243.25945451007908 372.71423943049115 248.33710260633805 381.8487713149983Q253.44092414639218 390.9833031995055 261.44999794770786 397.86691891762973Q269.45907174902356 404.750534635754 279.4311538349755 408.7027246488216Q289.4294093647225 412.65491466188905 299.2182773441084 412.65491466188905L299.2182773441084 412.65491466188905Q299.9773072141677 412.65491466188905 301.57388728567184 412.5763943305036Q303.19664080097107 412.4717005553231 305.0811287542218 412.4717005553231L305.0811287542218 412.4717005553231Q307.6984731337368 412.4717005553231 309.87086896873416 412.94282254363577Q312.0432648037315 413.41394453194846 312.2264789102976 414.93200427206705L312.2264789102976 414.93200427206705Q309.58296108698755 415.2984324851992 306.7562291571114 415.7695544735119Q303.9294972272353 416.2406764618246 301.3121528477203 416.2406764618246L301.3121528477203 416.2406764618246Q293.56481348435614 416.2406764618246 285.29400524508895 414.17297440200775L285.29400524508895 414.17297440200775Q294.1406292478494 416.8164922253178 302.9872532506099 416.8164922253178L302.9872532506099 416.8164922253178Q305.0811287542218 416.8164922253178 307.3320449206047 416.60710467495664Q309.58296108698755 416.42389056839056 311.67683659059946 416.0574623552585L311.67683659059946 416.0574623552585L313.5613245438502 418.3083785216413Q315.2364249467398 417.94195030850926 316.38805647372635 417.8372565333286Q317.51351455691776 417.7587362019432 320.3402464867939 416.60710467495664L320.3402464867939 416.60710467495664Q320.3402464867939 410.5872126020723 320.889888806492 404.8290549671394Q321.4657045699853 399.0970707760017 321.4657045699853 393.0510052593222L321.4657045699853 393.0510052593222L321.4657045699853 390.43366087980735Q321.4657045699853 387.0311131864379 320.9945825816726 383.15744350475575Q320.5234605933599 379.3099472668688 318.2725444269771 377.0328576566908L318.2725444269771 377.0328576566908L317.1209128999905 377.6086734201841Q319.00540085324127 381.95346509017895 319.58121661673454 386.8478990798718Q320.15703238022786 391.7423330695648 320.15703238022786 396.63676705925775L320.15703238022786 396.63676705925775Q320.15703238022786 404.750534635754 319.00540085324127 412.288486448757L319.00540085324127 412.288486448757Q319.58121661673454 406.0592068255114 319.58121661673454 399.856100646061L319.58121661673454 399.856100646061Q319.58121661673454 398.5212550125084 319.29330873498793 394.67375877462155Q319.00540085324127 390.8000890929394 318.45575853354313 386.7432053046913Q317.87994277004987 382.68632151644306 317.0423925686051 379.4931613734349Q316.1786689233652 376.3000012304267 315.2364249467398 376.3000012304267L315.2364249467398 376.3000012304267Q310.7345926139741 376.3000012304267 306.10189306223265 375.5409713603673Q301.4953669542864 374.781941490308 296.96736117772554 374.781941490308L296.96736117772554 374.781941490308L296.02511720110016 374.781941490308L290.94746910484116 374.96515559687407Q290.94746910484116 374.41551327717593 290.8427753296606 373.6564834071165Q290.73808155448 372.89745353705723 290.73808155448 372.13842366699794L290.73808155448 372.13842366699794Q290.73808155448 370.6465373706744 291.3138973179733 369.3116917371218Q291.88971308146654 368.00301954736426 293.9574151412834 368.00301954736426L293.9574151412834 368.00301954736426L296.2083313076662 368.18623365393034L296.2083313076662 365.93531748754754Q293.56481348435614 365.17628761748813 290.8427753296606 363.47501377080346Q288.12073717496503 361.7737399241188 288.12073717496503 358.5805797811105L288.12073717496503 358.5805797811105Q288.12073717496503 356.3034901709325 290.5548674479139 354.99481798117506Q293.015171164658 353.68614579141763 296.3130250828468 353.00563625274367Q299.61087900103564 352.351300157865 302.8040391440438 352.1680860512989Q306.0233727308472 351.98487194473284 307.6984731337368 351.98487194473284L307.6984731337368 351.98487194473284Q324.86825226335475 351.98487194473284 333.6101824909346 360.8314959474934Q342.3782861623097 369.70429339404905 342.3782861623097 386.8478990798718L342.3782861623097 386.8478990798718Q342.3782861623097 398.15482679937634 340.4937982090589 409.35706074370023Q338.60931025580817 420.5854681318193 338.60931025580817 431.89239585132384L338.60931025580817 431.89239585132384Q338.60931025580817 434.32652612427273 337.9549741609294 436.39422818408957Q337.3006380660507 438.4881036877015 334.2906920296085 438.4881036877015L334.2906920296085 438.4881036877015L335.2329360062339 424.90408635801896L333.53166215954917 437.9122879242083Q332.9558463960559 437.9122879242083 332.40620407635777 438.0169816993888Q331.83038831286444 438.09550203077424 331.2545725493712 438.09550203077424L331.2545725493712 438.09550203077424Q330.88814433623907 438.09550203077424 330.70493022967304 438.0169816993888Q330.521716123107 437.9122879242083 330.1291144661798 437.9122879242083L330.1291144661798 437.9122879242083L330.1291144661798 440.7390198540844Q328.63722816985626 443.56575178396054 325.6011086896189 443.56575178396054ZM317.1209128999905 428.67306226452047L317.1209128999905 428.67306226452047Q313.7445386504163 428.85627637108655 310.4466847322275 429.4320921345799Q307.14883081403866 430.0079078980731 303.7462831206692 430.0079078980731L303.7462831206692 430.0079078980731Q290.3716533413479 430.0079078980731 277.1802376685926 425.55842245289773Q263.9888219958374 421.13511045151745 253.15301626464554 413.12603665020174Q242.3172105334537 405.11696284888603 234.59604461388466 393.8100351293816L234.59604461388466 393.8100351293816Q229.12579486069842 385.72244099668046 226.48227703738834 376.3000012304267L226.48227703738834 376.3000012304267Q229.12579486069842 387.0311131864379 235.35507448394395 395.6945230826324L235.35507448394395 395.6945230826324Q243.4426686166451 407.394052459064 255.14219799307688 415.2984324851992Q266.8155539257135 423.2028125113343 280.9492135750941 427.18117596819695Q295.0828732244748 431.13336598126455 309.39974698042147 431.13336598126455L309.39974698042147 431.13336598126455L310.5252050636129 431.13336598126455Q312.4096930168636 431.13336598126455 314.11096686354836 430.7407643243373Q315.8122407102331 430.37433611120514 317.1209128999905 428.67306226452047ZM246.26940054652124 388.3397853761953L246.26940054652124 388.3397853761953L246.26940054652124 388.73238703312256Q246.26940054652124 390.6168749863733 248.7297042632653 393.26039280968337Q251.16383453621418 395.87773718919834 254.38316812301753 398.44273468112294Q257.57632826602577 400.98155872925247 260.69096807764856 403.15395456424983Q263.8056078892713 405.3001769554521 265.2974941855948 406.0592068255114L265.2974941855948 406.0592068255114Q263.6223937827053 404.750534635754 260.8741821842146 402.68283257593714Q258.15214402951904 400.58895707232523 255.3254120996429 398.15482679937634Q252.4986801697668 395.6945230826324 249.9598561216373 393.15569903450285Q247.39485862971267 390.6168749863733 246.26940054652124 388.3397853761953ZM322.40794854661067 416.9997063318839L322.7743767597428 416.9997063318839Q323.16697841667 412.65491466188905 323.92600828672937 408.59803087364094Q324.65886471299353 404.5673205291879 324.65886471299353 400.2225288591932L324.65886471299353 400.2225288591932Q324.65886471299353 397.579011035883 324.4756506064275 395.1448807629341Q324.2924364998615 392.68457704619016 323.71662073636816 390.0410592228801L323.71662073636816 390.0410592228801Q323.71662073636816 396.8199811658237 323.53340662980213 403.6250765525625Q323.35019252323605 410.40399849550624 322.40794854661067 416.9997063318839L322.40794854661067 416.9997063318839ZM338.7925243623742 394.752279106007L338.7925243623742 394.752279106007Q336.54160819599133 400.40574296575915 336.7248223025574 405.87599271894544L336.7248223025574 405.87599271894544Q336.90803640912344 410.9536408152044 336.1751799828593 416.0574623552585L336.1751799828593 416.0574623552585Q337.11742395948465 410.9536408152044 337.6670662791828 405.69277861237936L337.6670662791828 405.69277861237936Q338.4260961492421 400.2225288591932 338.7925243623742 394.752279106007ZM225.3568189541969 370.8297514772404L225.3568189541969 370.8297514772404Q225.9326347176902 373.6564834071165 226.48227703738834 376.3000012304267L226.48227703738834 376.3000012304267Q225.9326347176902 373.6564834071165 225.3568189541969 370.8297514772404ZM225.17360484763088 368.76204941742367L225.17360484763088 368.76204941742367Q225.3568189541969 369.887507500615 225.3568189541969 370.8297514772404L225.3568189541969 370.8297514772404Q225.17360484763088 369.887507500615 225.17360484763088 368.76204941742367ZM477.8782046897978 317.8808746796533L477.8782046897978 317.8808746796533Q463.3781168272851 317.8808746796533 449.03506962754324 318.71842488109803Q434.71819587159655 319.5559750825429 420.40132211564986 319.5559750825429L420.40132211564986 319.5559750825429Q422.8616258323939 319.76536263290404 425.2172357739573 319.8438829642895Q427.57284571552077 319.94857673947007 430.19019009503575 319.94857673947007L430.19019009503575 319.94857673947007Q438.8797734350253 319.94857673947007 447.43848955603914 319.6606688577234Q456.0233791208482 319.3727609759768 464.68678901704254 319.3727609759768L464.68678901704254 319.3727609759768L470.3402528767948 319.3727609759768Q473.16698480667094 319.3727609759768 476.17693084311315 319.5559750825429L476.17693084311315 319.5559750825429Q473.533413019803 321.25724892922756 470.62816075854147 322.01627879928685Q467.69673505348476 322.7753086693462 464.7914827922232 323.06321655109286Q461.8600570871664 323.32495098904434 458.7454172755437 323.32495098904434Q455.6307774639209 323.32495098904434 452.6208314274787 323.53433853940555L452.6208314274787 323.53433853940555L450.919557580794 321.25724892922756Q446.60093935459435 322.01627879928685 442.25614768459957 322.19949290585294Q437.9375294583999 322.38270701241896 433.5927377884051 322.38270701241896L433.5927377884051 322.38270701241896L416.8155603157144 322.19949290585294L416.99877442228046 323.9007667525376L448.48542730784516 323.7175526459716Q432.46727970521374 324.659796622597 416.99877442228046 324.843010729163L416.99877442228046 324.843010729163Q417.2081619726416 327.30331444590706 417.3913760792077 329.6589243874705Q417.5745901857738 332.01453432903395 417.94101839890584 334.44866460198284L417.94101839890584 334.44866460198284L415.69010223252303 335.02448036547605Q417.2081619726416 341.4369740952877 417.8624980675204 349.0534462396762Q418.5168341623991 356.69609182785973 419.0926499258924 364.6004718539949Q419.6422922455905 372.5310253239252 420.6892299973965 380.14749746831365Q421.70999430540735 387.7901430564972 423.80386980901926 393.9932492359476L423.80386980901926 393.9932492359476L424.3535121287174 393.44360691624945Q423.228054045526 387.0311131864379 422.2858100689007 379.5978551486155Q421.34356609227524 372.13842366699794 420.50601589083044 364.3125639722482Q419.6422922455905 356.51287772129376 418.8832623755312 348.97492590829074L418.8832623755312 348.97492590829074Q418.3336200558331 341.8034023084198 417.94101839890584 335.5741226851742L417.94101839890584 335.5741226851742Q418.70004826896513 345.5723782149213 420.21810800908383 356.51287772129376L420.21810800908383 356.51287772129376Q421.9193818557685 367.610417890437 423.80386980901926 379.0220393851222Q425.68835776227 390.43366087980735 427.4681519403402 401.5312010489506Q429.24794611841037 412.65491466188905 430.766005858529 422.83638429820223L430.766005858529 422.83638429820223Q431.13243407166107 426.0295444412104 431.70824983515433 429.7200000163265Q432.28406559864766 433.38428214764735 432.28406559864766 437.15325805414886L432.28406559864766 437.15325805414886L432.28406559864766 439.43034766432686Q432.28406559864766 440.7390198540844 431.8914639417204 441.86447793727575L431.8914639417204 441.86447793727575Q430.582791751963 441.86447793727575 429.35263989359095 442.33559992558844Q428.1224880352189 442.80672191390113 426.8138158454615 442.80672191390113L426.8138158454615 442.80672191390113Q424.74611378564464 442.80672191390113 424.27499179733195 440.7390198540844Q423.80386980901926 438.67131779426757 423.80386980901926 437.15325805414886L423.80386980901926 437.15325805414886L422.1025959623346 437.15325805414886Q421.9193818557685 438.2787161373403 421.4482598674558 440.08468375920563Q420.97713787914313 441.86447793727575 420.1134142339032 443.56575178396054Q419.2758640324584 445.2670256306452 418.04571217408636 446.39248371383655Q416.8155603157144 447.517941797028 415.32367401939086 447.517941797028L415.32367401939086 447.517941797028Q413.43918606614017 447.517941797028 411.9211263260214 444.87442397371797Q410.4030665859028 442.257079594203 409.19908817132597 438.09550203077424Q407.96893631295393 433.9600979111407 407.105212667714 428.9609701462672Q406.2676624662692 423.9618423813936 405.6133263713905 419.35531627344733Q404.9589902765117 414.7226167217059 404.4878682881991 410.9536408152044Q404.01674629988634 407.18466490870287 403.62414464295915 405.5095645058134L403.62414464295915 405.5095645058134Q401.73965668970834 397.579011035883 400.14307661820425 388.15657126962935Q398.54649654670015 378.7341315033756 397.4210384635087 369.1284776305557Q396.26940693652216 359.52282375773586 395.61507084164344 349.99569021630157Q394.96073474676473 340.49473011866235 394.96073474676473 332.19774843560003L394.96073474676473 332.19774843560003Q394.96073474676473 330.8629028020474 395.06542852194525 329.6589243874705Q395.1439488533307 328.4287725290985 395.1439488533307 327.0939268955459L395.1439488533307 327.0939268955459L395.1439488533307 325.96846881235444Q395.1439488533307 325.2094389422951 394.96073474676473 324.47658251603093L394.96073474676473 324.47658251603093Q383.8370211338262 324.2671949656697 373.8649390478744 323.4296447642249Q363.8666835181273 322.5920945627802 351.61751182199737 321.0740348226615L351.61751182199737 321.0740348226615Q351.80072592856345 319.94857673947007 351.80072592856345 318.6137311059175Q351.80072592856345 317.30505891615996 352.08863381031006 316.1796008329686Q352.37654169205666 315.05414274977716 353.03087778693543 314.1904191045372Q353.6852138818142 313.3528689030925 355.3864877284989 313.3528689030925L355.3864877284989 313.3528689030925Q356.5119458116903 313.3528689030925 358.0300055518089 313.71929711622454L358.0300055518089 313.71929711622454L358.57964787150706 312.01802326953987Q356.32873170512426 311.0757792929145 353.31878566868204 309.00807723309765Q350.30883963223994 306.9403751732808 350.30883963223994 304.11364324340474L350.30883963223994 304.11364324340474Q350.30883963223994 302.41236939672 351.61751182199737 301.57481919527527Q352.9261840117548 300.71109555003534 354.8106719650056 300.34466733690317Q356.6951599182563 299.9782391237711 358.57964787150706 299.8735453485905Q360.4641358247578 299.76885157340996 361.40637980138325 299.76885157340996L361.40637980138325 299.76885157340996Q368.21147518812205 299.76885157340996 374.88570335588514 300.52788144346925Q381.58610496744336 301.28691131352855 388.36502691038703 301.28691131352855L388.36502691038703 301.28691131352855Q405.5086325962099 301.28691131352855 422.46902417546664 301.7580333018413Q439.42941575472344 302.229155290154 456.57302144054626 302.229155290154L456.57302144054626 302.229155290154Q459.97556913391566 302.229155290154 463.2734230521045 301.28691131352855Q466.5712769702933 300.34466733690317 469.97382466366275 300.34466733690317L469.97382466366275 300.34466733690317Q471.2824968534202 300.34466733690317 472.3294346052262 301.1036972069626Q473.350198913237 301.8627270770219 473.350198913237 303.3546133733454L473.350198913237 303.3546133733454Q468.27255081697797 304.29685734997076 462.98551517035787 304.8726731134641L462.98551517035787 304.8726731134641Q458.274295287231 305.23910132659614 453.379861297538 305.6317029835234L453.379861297538 305.6317029835234Q458.274295287231 305.6317029835234 462.98551517035787 305.23910132659614L462.98551517035787 305.23910132659614Q468.089336710412 304.8726731134641 473.350198913237 304.48007145653685L473.350198913237 304.48007145653685L473.350198913237 308.0658332564723L476.75274660660637 307.51619093677414Q478.2446329029299 307.8826191499062 479.5794785364825 308.9295569017122Q480.88815072624004 309.95032120972303 480.88815072624004 311.8348091629738L480.88815072624004 311.8348091629738Q480.88815072624004 313.53608300965846 479.94590674961466 315.1326630811626Q479.0036627729893 316.72924315266675 477.8782046897978 317.8808746796533ZM413.43918606614017 324.843010729163L411.73791221945544 324.843010729163Q412.1043404325875 330.3132604823493 412.75867652746626 336.9089683187269Q413.43918606614017 343.50467615510445 414.17204249240433 350.2835980980482Q414.9310723624636 357.0625200409919 415.79479600770355 363.5797075459841Q416.63234620914835 370.0707216071811 417.3913760792077 375.5409713603673L417.3913760792077 375.5409713603673Q416.8155603157144 370.2539357137472 416.16122422083566 363.65822787736954Q415.50688812595695 357.0625200409919 414.9310723624636 350.2835980980482Q414.3814300427655 343.50467615510445 413.9103080544528 336.9089683187269Q413.43918606614017 330.3132604823493 413.43918606614017 324.843010729163L413.43918606614017 324.843010729163ZM446.0251235911011 305.6317029835234L446.0251235911011 305.6317029835234L435.6604398482219 305.6317029835234Q430.94921996509504 305.6317029835234 426.23800008196815 305.4223154331622L426.23800008196815 305.4223154331622Q428.51508969214615 305.81491709008947 430.582791751963 306.1813453032215L430.582791751963 306.1813453032215Q433.22630957527304 306.75716106671484 436.4194697182813 306.75716106671484L436.4194697182813 306.75716106671484Q438.67038588466414 306.75716106671484 441.23538337658874 306.3645594097876Q443.7742074247182 305.9981311966555 446.0251235911011 305.6317029835234ZM412.49694208951473 322.19949290585294L412.49694208951473 323.9007667525376L413.43918606614017 323.9007667525376L413.43918606614017 322.19949290585294L412.49694208951473 322.19949290585294Z " fill="black" transform="matrix(0.6807200681473536,0,0,0.6807200681473535,0,46.41954124368246)"/><path d="M700.1641021853311 443.7907660032671L700.1641021853311 443.7907660032671Q698.7571579800332 443.7907660032671 696.7084497512661 442.6306541146881Q694.659741522499 441.47054222610916 694.659741522499 439.6933495457329L694.659741522499 439.6933495457329Q694.659741522499 436.68199528176194 695.3755552409839 433.91747333450996Q696.0913689594688 431.1776346189299 696.4369342028752 428.33906297666226L696.4369342028752 428.33906297666226L695.7211204843904 428.8574108417721L693.5983625606077 439.0022190589199Q691.4756046368249 435.96618156327713 691.4756046368249 432.9548272993062L691.4756046368249 432.9548272993062Q691.4756046368249 432.2390135808214 691.8211698802313 431.52319986233647L691.8211698802313 431.52319986233647Q688.4395671411821 433.1276099210095 684.983914707117 434.18898888290084Q681.5035790413802 435.2503678447922 677.7764110589245 435.2503678447922L677.7764110589245 435.2503678447922Q668.1746339385583 435.2503678447922 659.732968706771 432.7820446776029Q651.2913034749838 430.2890382787418 642.7755885481808 426.561870296286L642.7755885481808 426.561870296286L641.8869922079926 424.24164651912815Q633.3465940495178 420.6872611583756 626.163773632997 414.6398693987619Q618.9562699848044 408.5924776391482 613.7234248703633 400.86662612584587Q608.4658965242501 393.1407746125434 605.5285919552948 384.25481121066207Q602.6159706180115 375.36884780878074 602.6159706180115 366.137319163493L602.6159706180115 366.137319163493Q602.6159706180115 358.13995210179974 604.8374614684819 350.48815028351305Q607.0589523189522 342.83634846522637 611.5019340198928 336.27060884050286L611.5019340198928 336.27060884050286L610.4158718263295 335.7275777437212Q606.1703559787641 342.31800060011653 603.5786166532152 349.7723365650281Q601.0115605593385 357.25135576161165 601.0115605593385 365.2487228233048L601.0115605593385 365.2487228233048Q601.0115605593385 373.0486240316228 603.1343184831212 380.9719413983004Q605.281759638576 388.870575533306 609.1817102427349 396.1521288765143Q613.081660846894 403.45836545139457 618.4132388880228 409.6785398327115L618.4132388880228 409.6785398327115Q623.7448169291515 415.52846573895 630.1624571638437 419.7986648181875L630.1624571638437 419.7986648181875Q623.9422827825267 415.89871421402836 618.4132388880228 410.19688769782124L618.4132388880228 410.19688769782124Q612.9088782251907 404.14949593820756 608.9101946943441 396.96667552168674Q604.9115111634976 389.7591718734941 602.6159706180115 381.8605377384886Q600.2957468408536 373.937220371811 600.2957468408536 366.4828844068994L600.2957468408536 366.4828844068994Q600.2957468408536 353.3267219257807 606.2444056737797 342.21926767342904Q612.1930645067059 331.1118134210773 621.7948416270721 323.11444635938415Q631.3966187474383 315.1170792976909 643.5654519616813 310.60004790173457Q655.7342851759245 306.0583332741063 668.1746339385583 306.0583332741063L668.1746339385583 306.0583332741063Q676.1720010002514 306.0583332741063 683.5522872701474 308.18109119788915Q690.9325735400432 310.3285323533438 698.3869095049548 312.8215387522049L698.3869095049548 312.8215387522049Q697.4983131647666 313.3398866173146 697.4242634697509 314.2284829575028Q697.3255305430635 315.1170792976909 697.1527479213602 315.9316259428634Q696.9799652996569 316.7214893563639 696.5356671295629 317.26452045314556Q696.0913689594688 317.7828683182553 694.659741522499 317.7828683182553L694.659741522499 317.7828683182553Q692.3642009770131 317.7828683182553 690.1427101265426 317.0670545997705Q687.9212192760724 316.3759241129575 685.9465607423209 315.4873277727693L685.9465607423209 315.4873277727693L685.4282128772112 317.7828683182553Q686.6623744608058 318.1531167933337 688.7110826895729 319.21449575522513Q690.7597909183401 320.2758747171165 692.8084991471071 321.6087692273987Q694.8325241442022 322.94166373768087 696.3628845078596 324.5460737963539Q697.8685616398451 326.1504838550269 697.8685616398451 327.5574280603248L697.8685616398451 327.5574280603248Q697.8685616398451 329.70486921577947 696.1654186544845 330.1491673858735Q694.4869589007958 330.59346555596755 692.8825488421228 330.59346555596755L692.8825488421228 330.59346555596755Q687.5509708009939 330.59346555596755 682.2193927598652 328.98905549729454Q676.8878147187363 327.38464543862153 671.5562366776076 327.38464543862153L671.5562366776076 327.38464543862153Q661.9544595572413 327.38464543862153 653.06849615536 330.0504344591859Q644.1825327534787 332.7162234797504 637.444010507052 337.7762859724884Q630.6808050289534 342.83634846522637 626.6080718030912 350.21663473512217Q622.510655345557 357.5969210050181 622.510655345557 367.19869812538434L622.510655345557 367.19869812538434Q622.510655345557 376.97325786745375 627.2992022899041 385.5877057209443Q632.1124324659231 394.2021535744349 639.6655013575223 400.6938435041426Q647.2185702491215 407.1855334338503 656.6228815161126 410.91270141630616Q666.0518760147754 414.6398693987619 675.2834046600633 414.6398693987619L675.2834046600633 414.6398693987619Q675.9992183785482 414.6398693987619 677.5048955105336 414.56581970374623Q679.0352558741911 414.4670867770586 680.8124485545673 414.4670867770586L680.8124485545673 414.4670867770586Q683.2807717217565 414.4670867770586 685.3294799505236 414.91138494715267Q687.3781881792906 415.3556831172468 687.5509708009939 416.78731055421656L687.5509708009939 416.78731055421656Q685.0579644021328 417.132875797623 682.3921753815684 417.57717396771716Q679.726386361004 418.0214721378112 677.2580631938147 418.0214721378112L677.2580631938147 418.0214721378112Q669.9518266189345 418.0214721378112 662.1519254106165 416.07149683573164L662.1519254106165 416.07149683573164Q670.4948577157162 418.56450323459285 678.8377900208159 418.56450323459285L678.8377900208159 418.56450323459285Q680.8124485545673 418.56450323459285 682.93520647835 418.36703738121764Q685.0579644021328 418.1942547595145 687.0326229358842 417.8486895161079L687.0326229358842 417.8486895161079L688.8098156162605 419.97144743989065Q690.3895424432616 419.6258821964842 691.4756046368249 419.5271492697966Q692.5369835987162 419.45309957478094 695.2027726192807 418.36703738121764L695.2027726192807 418.36703738121764Q695.2027726192807 412.68989409668234 695.7211204843904 407.259583128866Q696.2641515811721 401.85395539272156 696.2641515811721 396.1521288765143L696.2641515811721 396.1521288765143L696.2641515811721 393.68380570932504Q696.2641515811721 390.474985591979 695.8198534110779 386.82186730453896Q695.3755552409839 383.1934322487707 693.2527973172012 381.04599109331605L693.2527973172012 381.04599109331605L692.1667351236379 381.5890221900977Q693.9439278040142 385.6864386476319 694.4869589007958 390.30220297027574Q695.0299899975773 394.9179672929197 695.0299899975773 399.5337316155636L695.0299899975773 399.5337316155636Q695.0299899975773 407.1855334338503 693.9439278040142 414.29430415535535L693.9439278040142 414.29430415535535Q694.4869589007958 408.41969501744495 694.4869589007958 402.56976911120637L694.4869589007958 402.56976911120637Q694.4869589007958 401.3109242959399 694.2154433524049 397.68248924017166Q693.9439278040142 394.0293709527316 693.4255799389043 390.20347004358825Q692.8825488421228 386.3775691344449 692.0926854286222 383.366214870474Q691.2781387834498 380.35486060650305 690.3895424432616 380.35486060650305L690.3895424432616 380.35486060650305Q686.144026595696 380.35486060650305 681.775094589771 379.63904688801824Q677.4308458155181 378.9232331695333 673.1606467362806 378.9232331695333L673.1606467362806 378.9232331695333L672.2720503960925 378.9232331695333L667.4835034517453 379.0960157912366Q667.4835034517453 378.57766792612676 667.3847705250577 377.86185420764195Q667.2860375983701 377.14604048915703 667.2860375983701 376.4302267706721L667.2860375983701 376.4302267706721Q667.2860375983701 375.0232825653743 667.8290686951518 373.76443775010773Q668.3720997919334 372.5302761665131 670.3220750940129 372.5302761665131L670.3220750940129 372.5302761665131L672.4448330177956 372.70305878821637L672.4448330177956 370.58030086443364Q669.9518266189345 369.8644871459487 667.3847705250577 368.2600770872757Q664.8177144311809 366.6556670286027 664.8177144311809 363.64431276463176L664.8177144311809 363.64431276463176Q664.8177144311809 361.4968716091771 667.1132549766669 360.26271002558246Q669.4334787538248 359.0285484419878 672.5435659444832 358.3867844185187Q675.6536531351417 357.76970362672137 678.6650073991126 357.5969210050181Q681.7010448947553 357.4241383833148 683.2807717217565 357.4241383833148L683.2807717217565 357.4241383833148Q699.4729716985181 357.4241383833148 707.7171710769302 365.7670706884145Q715.9860536870142 374.1346862251861 715.9860536870142 390.30220297027574L715.9860536870142 390.30220297027574Q715.9860536870142 400.96535905253336 714.2088610066379 411.52978220810337Q712.4316683262617 422.1188885953453 712.4316683262617 432.7820446776029L712.4316683262617 432.7820446776029Q712.4316683262617 435.07758522308893 711.8145875344644 437.0275605251685Q711.1975067426671 439.0022190589199 708.3589351003994 439.0022190589199L708.3589351003994 439.0022190589199L709.2475314405875 426.1916218212076L707.6431213819145 438.45918796213823Q707.1000902851329 438.45918796213823 706.5817424200231 438.55792088882583Q706.0387113232415 438.6319705838415 705.4956802264599 438.6319705838415L705.4956802264599 438.6319705838415Q705.1501149830534 438.6319705838415 704.9773323613501 438.55792088882583Q704.8045497396469 438.45918796213823 704.4343012645685 438.45918796213823L704.4343012645685 438.45918796213823L704.4343012645685 441.1249769827026Q703.0273570592706 443.7907660032671 700.1641021853311 443.7907660032671ZM692.1667351236379 429.7460071819602L692.1667351236379 429.7460071819602Q688.9825982379637 429.91878980366346 685.8725110473052 430.4618209004451Q682.7624238566468 431.00485199722675 679.5536037393008 431.00485199722675L679.5536037393008 431.00485199722675Q666.9404723549636 431.00485199722675 654.5001235923298 426.8087026130049Q642.0597748296959 422.63723646045514 631.8409169175324 415.08416756885595Q621.6220590053688 407.53109867725686 614.3405056621605 396.86794259499925L614.3405056621605 396.86794259499925Q609.1817102427349 389.2408240083844 606.6887038438738 380.35486060650305L606.6887038438738 380.35486060650305Q609.1817102427349 390.474985591979 615.0563193806454 398.64513527537554L615.0563193806454 398.64513527537554Q622.6834379672603 409.6785398327115 633.7168425245961 417.132875797623Q644.7255638502603 424.5872117625346 658.0545089530823 428.33906297666226Q671.3834540559043 432.0662309591181 684.8851817804295 432.0662309591181L684.8851817804295 432.0662309591181L685.9465607423209 432.0662309591181Q687.7237534226972 432.0662309591181 689.3281634813702 431.69598248403963Q690.9325735400432 431.3504172406332 692.1667351236379 429.7460071819602ZM625.3492269878245 391.70914717557366L625.3492269878245 391.70914717557366L625.3492269878245 392.07939565065203Q625.3492269878245 393.8565883310283 627.6694507649825 396.34959472988953Q629.9649913104686 398.8179178970787 633.0010288061113 401.23687460092424Q636.0123830700823 403.63114807309785 638.9496876390374 405.6798563018649Q641.8869922079926 407.70388129896 643.2939364132906 408.41969501744495L643.2939364132906 408.41969501744495Q641.7142095862894 407.1855334338503 639.1224702607407 405.23555813177086Q636.5554141668638 403.26089959801936 633.8896251462994 400.96535905253336Q631.223836125735 398.64513527537554 628.8295626535614 396.25086180320193Q626.410605949716 393.8565883310283 625.3492269878245 391.70914717557366ZM697.1527479213602 418.737285856296L697.4983131647666 418.737285856296Q697.8685616398451 414.6398693987619 698.5843753583299 410.81396848961856Q699.2755058451429 407.01275081214703 699.2755058451429 402.9153343546129L699.2755058451429 402.9153343546129Q699.2755058451429 400.4223279557517 699.1027232234396 398.1267874102657Q698.9299406017365 395.8065636331079 698.3869095049548 393.3135572342467L698.3869095049548 393.3135572342467Q698.3869095049548 399.7065142372669 698.2141268832515 406.12415447195895Q698.0413442615483 412.5171114749792 697.1527479213602 418.737285856296L697.1527479213602 418.737285856296ZM712.6044509479649 397.75653893518734L712.6044509479649 397.75653893518734Q710.4816930241822 403.0881169763162 710.6544756458854 408.2469123957417L710.6544756458854 408.2469123957417Q710.8272582675887 413.0354593400889 710.1361277807757 417.8486895161079L710.1361277807757 417.8486895161079Q711.0247241209638 413.0354593400889 711.5430719860735 408.0741297740385L711.5430719860735 408.0741297740385Q712.2588857045585 402.9153343546129 712.6044509479649 397.75653893518734ZM605.6273248819824 375.19606518707747L605.6273248819824 375.19606518707747Q606.1703559787641 377.86185420764195 606.6887038438738 380.35486060650305L606.6887038438738 380.35486060650305Q606.1703559787641 377.86185420764195 605.6273248819824 375.19606518707747ZM605.4545422602791 373.246089884998L605.4545422602791 373.246089884998Q605.6273248819824 374.3074688468894 605.6273248819824 375.19606518707747L605.6273248819824 375.19606518707747Q605.4545422602791 374.3074688468894 605.4545422602791 373.246089884998ZM771.4492752537569 330.59346555596755L771.4492752537569 330.59346555596755Q771.6220578754602 331.48206189615576 773.3992505558364 331.48206189615576L773.3992505558364 331.48206189615576L773.7448157992429 331.48206189615576Q774.8061947611343 331.48206189615576 775.1764432362127 331.65484451785903L775.1764432362127 331.65484451785903Q784.4079718815005 334.4934161601267 793.5654508317726 339.92372712794304Q802.7229297820448 345.32935486408746 810.1032160519406 352.88242375568655Q817.4588190901646 360.43549264728574 822.000533717793 370.037269767652Q826.5422483454212 379.63904688801824 826.5422483454212 390.6477682136823L826.5422483454212 390.6477682136823Q826.5422483454212 400.24954533404855 822.7903971312935 409.1355087359299Q819.0632291488378 418.0214721378112 812.4974895241143 424.5872117625346L812.4974895241143 424.5872117625346Q819.2360117705409 418.737285856296 823.2346953013875 409.92537214943036Q827.2333788322342 401.13814167423664 827.2333788322342 391.01801668876067L827.2333788322342 391.01801668876067Q827.2333788322342 379.63904688801824 822.444831887887 369.7657542192611Q817.6562849435398 359.917144782176 810.1772657469563 352.09256034218606Q802.7229297820448 344.2679759021961 793.5654508317726 338.66488231267647Q784.4079718815005 333.06178872315684 775.6947911013224 330.0504344591859L775.6947911013224 330.0504344591859Q782.4579965794211 330.0504344591859 789.4680343742385 333.06178872315684Q796.5027554007279 336.0978262187997 802.895712403748 340.9851060898344Q809.2886694067682 345.8723859608691 814.7189803745846 352.16661003720174Q820.1246081107291 358.4855173452062 823.8764593248568 365.0512569699297L823.8764593248568 365.0512569699297L822.6176145095902 366.82844965030597Q826.1719998703428 372.1600276914347 828.0479254774067 378.3802020727517Q829.8991678527985 384.6003764540686 829.8991678527985 391.19079931046394L829.8991678527985 391.19079931046394Q829.8991678527985 403.803930694801 824.4935401166541 413.30697488847966Q819.0632291488378 422.8100190821583 810.7943465387538 429.12892639016286Q802.5501471603416 435.4478336981674 792.6768544915845 438.6319705838415Q782.8035618228274 441.84079070118753 774.1150642743213 441.84079070118753L774.1150642743213 441.84079070118753Q769.129051476599 441.84079070118753 764.068988983861 440.77941173929617Q759.008926491123 439.6933495457329 753.8501310716975 437.2250263785436L753.8501310716975 437.2250263785436L753.8501310716975 438.28640534043507Q758.8114606377479 441.1249769827026 764.068988983861 442.1863559445941Q769.3018340983023 443.24773490648545 774.4606295177279 443.24773490648545L774.4606295177279 443.24773490648545Q787.2465435237682 443.24773490648545 799.6128425913863 437.66932454863775Q811.9544584273326 432.0662309591181 820.4948565858075 421.9214227419702L820.4948565858075 421.9214227419702Q812.3247069024111 432.41179620252456 800.131190456496 438.28640534043507Q787.962357242253 444.13633124667354 774.8061947611343 444.13633124667354L774.8061947611343 444.13633124667354Q761.304467036609 444.13633124667354 752.9615347315093 438.9034861322323Q744.5939191947377 433.6706410177911 739.9041051770781 426.01883919950444Q735.1896079277467 418.36703738121764 733.5851978690737 409.8513224544147Q731.9807878104006 401.3109242959399 731.9807878104006 394.57240204951324L731.9807878104006 394.57240204951324Q731.9807878104006 385.4889727942567 734.3750612825742 376.8004752457505Q736.7940179864197 368.0872944655724 741.7553475524701 360.8057411223641Q746.7413603501924 353.49950454748387 754.5659447901824 348.2666594330427Q762.3658459985005 343.03381431860146 773.3992505558364 340.8863731631468L773.3992505558364 340.8863731631468L768.2404551364109 339.65221157955216Q764.513287153955 338.76361523936407 762.908877095282 337.5047704240975Q761.304467036609 336.27060884050286 761.304467036609 335.3820125003148L761.304467036609 335.3820125003148Q761.304467036609 333.95038506334504 764.4145542272676 332.27192530965624Q767.524641417926 330.59346555596755 771.4492752537569 330.59346555596755ZM762.3658459985005 351.37674662370114L763.4519081920637 352.98115668237415Q768.2404551364109 351.20396400199786 772.6834368373515 351.20396400199786L772.6834368373515 351.20396400199786Q777.1264185382922 351.20396400199786 779.5206920104657 352.5368585122801Q781.9149654826393 353.86975302256235 781.9149654826393 355.27669722786015L781.9149654826393 355.27669722786015Q781.9149654826393 356.16529356804836 779.8909404855442 357.25135576161165Q777.842232256777 358.312734723503 774.7321450661186 360.163977098895Q771.6220578754602 362.03990270595875 767.96893958802 364.8784743482264Q764.3405045322519 367.71704599049406 761.2304173415934 372.08597799641905Q758.1203301509348 376.4302267706721 756.0716219221678 382.65040115198906Q754.0229136934007 388.870575533306 754.0229136934007 397.2381910700776L754.0229136934007 397.2381910700776Q754.0229136934007 409.4810739793363 759.5272743562327 415.70124836065327Q765.0316350190649 421.9214227419702 774.8061947611343 421.9214227419702L774.8061947611343 421.9214227419702Q781.0263691424512 421.9214227419702 787.518059072159 419.7986648181875Q794.0097490018667 417.67590689440465 799.2425941163079 413.7512730585738Q804.5001224624211 409.8513224544147 807.7829922747828 404.14949593820756Q811.0658620871445 398.47235265367226 811.0658620871445 391.3635819321672L811.0658620871445 391.3635819321672Q811.0658620871445 386.03200389103836 809.2146197117526 380.7004258499096Q807.3386941046888 375.36884780878074 804.055824292327 370.48156793774604Q800.7729544799653 365.59428806671133 796.2312398523371 361.32408898747383Q791.6895252247089 357.05388990823644 786.35794718358 354.0425356442655L786.35794718358 354.0425356442655Q781.2238349958263 351.20396400199786 777.9162819517927 349.69828687001245Q774.633412139431 348.1679265063551 773.2264679341332 346.7609823010572L773.2264679341332 346.7609823010572Q771.7948404971634 347.4767960195421 769.2277844032866 348.439442054746Q766.6360450777378 349.4267713216217 762.3658459985005 351.37674662370114L762.3658459985005 351.37674662370114ZM776.0650395764009 343.379379562008L775.3492258579159 344.61354114560254Q783.5193755413123 347.27933016616703 790.9983947378959 352.6109082072958L790.9983947378959 352.6109082072958Q797.391351740916 357.4241383833148 802.7229297820448 363.1012816678501L802.7229297820448 363.1012816678501Q797.5641343626193 357.05388990823644 791.5167426030056 352.26534296388934L791.5167426030056 352.26534296388934Q784.5807545032038 346.58819967935403 776.0650395764009 343.379379562008L776.0650395764009 343.379379562008ZM809.8317005035499 405.23555813177086L809.8317005035499 405.23555813177086Q807.1659114829855 410.91270141630616 802.3526813069665 415.3556831172468L802.3526813069665 415.3556831172468Q805.5615014243125 413.232925193464 807.7829922747828 410.19688769782124Q810.0044831252532 407.1855334338503 811.4361105622229 404.14949593820756Q812.8430547675208 401.13814167423664 813.5588684860057 398.64513527537554L813.5588684860057 398.64513527537554Q814.1018995827873 396.34959472988953 814.4474648261938 394.9179672929197L814.4474648261938 394.9179672929197Q812.4974895241143 399.5337316155636 809.8317005035499 405.23555813177086ZM821.7290181694021 420.5144785366723L821.7290181694021 420.5144785366723Q821.5562355476989 420.86004378007885 821.2106703042924 421.2302922551572L821.2106703042924 421.2302922551572Q821.0132044509172 421.4030748768605 820.840421829214 421.4030748768605L820.840421829214 421.4030748768605Q820.6676392075107 421.4030748768605 821.7290181694021 419.5271492697966Q822.7903971312935 417.67590689440465 824.3207574949508 415.08416756885595Q825.8264346269362 412.5171114749792 827.2333788322342 409.6785398327115L827.2333788322342 409.6785398327115Q828.4922236475007 407.53109867725686 829.0105715126105 405.92668861858385L829.0105715126105 405.92668861858385Q826.5422483454212 413.57849043687054 821.7290181694021 420.5144785366723ZM831.6763605331748 391.70914717557366L831.6763605331748 391.70914717557366Q831.6763605331748 394.57240204951324 831.3307952897684 397.3122407650933Q830.9852300463618 400.07676271234527 830.0966337061737 402.3723032578313L830.0966337061737 402.3723032578313Q831.3307952897684 397.9293215568906 831.3307952897684 392.4249608940586L831.3307952897684 392.4249608940586Q831.3307952897684 388.3522276681963 830.6149815712835 384.42759383236535L830.6149815712835 384.42759383236535Q830.0966337061737 381.04599109331605 829.2080373659855 377.86185420764195L829.2080373659855 377.86185420764195Q830.0966337061737 381.04599109331605 830.7877641929867 384.25481121066207L830.7877641929867 384.25481121066207Q831.6763605331748 387.80919657141465 831.6763605331748 391.70914717557366ZM774.1150642743213 344.4407585238994L775.3492258579159 341.7749695033349L773.7448157992429 341.0591557848501Q773.5720331775397 341.42940425992845 773.2264679341332 341.7749695033349Q772.8562194590548 342.14521797841337 772.8562194590548 342.4907832218198L772.8562194590548 342.4907832218198Q772.8562194590548 342.83634846522637 773.3005176291489 343.4781124886955Q773.7448157992429 344.0951932804928 774.1150642743213 344.4407585238994L774.1150642743213 344.4407585238994ZM803.7843087439362 364.3601264831167L803.7843087439362 364.3601264831167Q803.2412776471546 363.64431276463176 802.7229297820448 363.1012816678501L802.7229297820448 363.1012816678501Q803.2412776471546 363.81709538633504 803.7843087439362 364.3601264831167ZM829.0105715126105 405.92668861858385L829.0105715126105 405.92668861858385Q829.2080373659855 405.5811233751773 829.2080373659855 405.23555813177086L829.2080373659855 405.23555813177086Q829.2080373659855 405.5811233751773 829.0105715126105 405.92668861858385ZM829.3808199876888 404.8653096566924L829.3808199876888 404.8653096566924Q829.2080373659855 405.03809227839565 829.2080373659855 405.23555813177086L829.2080373659855 405.23555813177086Q829.2080373659855 405.03809227839565 829.3808199876888 404.8653096566924ZM959.1158856551564 325.2618875148388L959.1158856551564 325.2618875148388Q945.4166920772559 325.2618875148388 931.9149643527306 326.05175092833935Q918.4132366282055 326.8416143418399 904.9115089036802 326.8416143418399L904.9115089036802 326.8416143418399Q907.2070494491662 327.0390801952151 909.4285402996366 327.11312989023077Q911.6500311501069 327.21186281691826 914.143037548968 327.21186281691826L914.143037548968 327.21186281691826Q922.3131872323644 327.21186281691826 930.4092872207452 326.9403472685275Q938.5053872091261 326.66883172013667 946.6755368925225 326.66883172013667L946.6755368925225 326.66883172013667L952.0071149336512 326.66883172013667Q954.6729039542156 326.66883172013667 957.5114755964834 326.8416143418399L957.5114755964834 326.8416143418399Q955.0184691976222 328.4460244005129 952.2786304820421 329.1618381189978Q949.5141085347901 329.87765183748274 946.7495865875381 330.1491673858735Q944.009747871958 330.39599970259246 941.0724433030028 330.39599970259246Q938.1351387340476 330.39599970259246 935.2965670917799 330.59346555596755L935.2965670917799 330.59346555596755L933.6921570331069 328.4460244005129Q929.6194238072447 329.1618381189978 925.5220073497104 329.3346207407011Q921.4245908921763 329.50740336240426 917.351857666314 329.50740336240426L917.351857666314 329.50740336240426L901.5299061646309 329.3346207407011L901.7026887863341 330.9390307993741L931.3966164876209 330.76624817767083Q916.2904787044226 331.65484451785903 901.7026887863341 331.8276271395622L901.7026887863341 331.8276271395622Q901.8754714080375 334.14785091672013 902.0729372614126 336.36934176719046Q902.2457198831158 338.5908326176608 902.5912851265222 340.8863731631468L902.5912851265222 340.8863731631468L900.4685272027394 341.42940425992845Q901.8754714080375 347.4767960195421 902.5172354315066 354.65961643606283Q903.1343162233039 361.8671200842555 903.6526640884136 369.32145604916707Q904.1956951851953 376.8004752457505 905.183024452071 383.9832956622713Q906.1456704872749 391.19079931046394 908.0956457893543 397.0407252167025L908.0956457893543 397.0407252167025L908.638676886136 396.5223773515927Q907.5772979242446 390.474985591979 906.6887015840565 383.4649477971616Q905.8001052438683 376.4302267706721 904.9855585986958 369.0499405007763Q904.1956951851953 361.6943374625523 903.4798814667104 354.58556674104716L903.4798814667104 354.58556674104716Q902.9615336016006 347.8223612629487 902.5912851265222 341.94775212503816L902.5912851265222 341.94775212503816Q903.3070988450072 351.37674662370114 904.7387262819769 361.6943374625523L904.7387262819769 361.6943374625523Q906.3184531089781 372.1600276914347 908.0956457893543 382.92191670037994Q909.8728384697306 393.68380570932504 911.5759814550912 404.14949593820756Q913.2544412087799 414.6398693987619 914.6860686457497 424.24164651912815L914.6860686457497 424.24164651912815Q915.0316338891561 427.25300078309897 915.5746649859378 430.73333644883587Q916.0930128510475 434.18898888290084 916.0930128510475 437.7433742436534L916.0930128510475 437.7433742436534L916.0930128510475 439.8908153991081Q916.0930128510475 441.1249769827026 915.747447607641 442.1863559445941L915.747447607641 442.1863559445941Q914.5132860240464 442.1863559445941 913.3531741354674 442.6306541146881Q912.1930622468885 443.07495228478217 910.9589006632939 443.07495228478217L910.9589006632939 443.07495228478217Q908.9842421295424 443.07495228478217 908.5399439594484 441.1249769827026Q908.0956457893543 439.17500168062315 908.0956457893543 437.7433742436534L908.0956457893543 437.7433742436534L906.5159189623532 437.7433742436534Q906.3184531089781 438.8047532055448 905.874154938884 440.5078961909054Q905.4298567687898 442.1863559445941 904.6399933552894 443.7907660032671Q903.8501299417889 445.3951760619401 902.6900180532099 446.45655502383147Q901.5299061646309 447.51793398572283 900.0982787276611 447.51793398572283L900.0982787276611 447.51793398572283Q898.3210860472849 447.51793398572283 896.914141841987 445.02492758686174Q895.4825144050172 442.55660441967245 894.3224025164383 438.6319705838415Q893.1869738595311 434.7320199796825 892.3724272143587 430.01752273035095Q891.5825638008581 425.3030254810195 890.9654830090609 420.95877670676634Q890.3237189855917 416.58984470084135 889.8794208154976 413.0354593400889Q889.4351226454036 409.4810739793363 889.089557401997 407.90134715233523L889.089557401997 407.90134715233523Q887.3123647216207 400.4223279557517 885.8066875896353 391.5363645538704Q884.3010104576498 382.65040115198906 883.2149482640866 373.59165512840445Q882.1535693021953 364.53290910481996 881.5364885103978 355.54821277625103Q880.9194077186006 346.58819967935403 880.9194077186006 338.76361523936407L880.9194077186006 338.76361523936407Q880.9194077186006 337.5047704240975 880.9934574136163 336.36934176719046Q881.0921903403038 335.2092298786115 881.0921903403038 333.95038506334504L881.0921903403038 333.95038506334504L881.0921903403038 332.88900610145356Q881.0921903403038 332.17319238296875 880.9194077186006 331.48206189615576L880.9194077186006 331.48206189615576Q870.4290342580463 331.28459604278055 861.0000397593832 330.49473262928007Q851.5957284923921 329.70486921577947 840.0439760699464 328.2732417788097L840.0439760699464 328.2732417788097Q840.2167586916497 327.21186281691826 840.2167586916497 325.9530180016518Q840.2167586916497 324.71885641805716 840.4882742400405 323.6574774561658Q840.7597897884312 322.59609849427443 841.3768705802286 321.7815518491019Q841.993951372026 320.9916884356014 843.5983614306989 320.9916884356014L843.5983614306989 320.9916884356014Q844.6597403925904 320.9916884356014 846.0913678295601 321.33725367900786L846.0913678295601 321.33725367900786L846.60971569467 319.73284362033485Q844.4869577708871 318.8442472801467 841.6483861286194 316.8942719780672Q838.7851312546799 314.9442966759877 838.7851312546799 312.27850765542325L838.7851312546799 312.27850765542325Q838.7851312546799 310.67409759675024 840.0439760699464 309.8842341832497Q841.2781376535411 309.06968753807723 843.0553303339174 308.72412229467074Q844.8325230142937 308.37855705126424 846.60971569467 308.27982412457663Q848.3869083750461 308.18109119788915 849.2755047152342 308.18109119788915L849.2755047152342 308.18109119788915Q855.6684617182544 308.18109119788915 861.987369026259 308.89690491637396Q868.3062763342634 309.6127186348589 874.6992333372835 309.6127186348589L874.6992333372835 309.6127186348589Q890.8667500823732 309.6127186348589 906.8614842057597 310.0570168049529Q922.8562183291461 310.501314975047 939.0237350742358 310.501314975047L939.0237350742358 310.501314975047Q942.2325551915818 310.501314975047 945.3426423822402 309.6127186348589Q948.4527295728986 308.72412229467074 951.6368664585729 308.72412229467074L951.6368664585729 308.72412229467074Q952.8957112738393 308.72412229467074 953.8583573090432 309.4399360131556Q954.8456865759189 310.1557497316405 954.8456865759189 311.56269393693844L954.8456865759189 311.56269393693844Q950.0571396315718 312.45129027712653 945.0711268338495 312.9943213739082L945.0711268338495 312.9943213739082Q940.6281451329088 313.3398866173146 936.0123808102647 313.71013509239305L936.0123808102647 313.71013509239305Q940.6281451329088 313.71013509239305 945.0711268338495 313.3398866173146L945.0711268338495 313.3398866173146Q949.8596737781967 312.9943213739082 954.8456865759189 312.6240728988298L954.8456865759189 312.6240728988298L954.8456865759189 316.0056756378791L958.0545066932649 315.4873277727693Q959.4614508985628 315.83289301617583 960.7202957138294 316.8202222830515Q961.954457297424 317.7828683182553 961.954457297424 319.56006099863157L961.954457297424 319.56006099863157Q961.954457297424 321.1644710573046 961.0658609572358 322.6701481892901Q960.1772646170477 324.1758253212755 959.1158856551564 325.2618875148388ZM898.3210860472849 331.8276271395622L896.7413592202837 331.8276271395622Q897.0869244636903 336.9864225589878 897.7040052554875 343.20659694030473Q898.3210860472849 349.4267713216217 899.0368997657698 355.8197283246418Q899.7527134842546 362.21268532766203 900.5425768977552 368.3588100139633Q901.3571235429276 374.48025146859266 902.0729372614126 379.63904688801824L902.0729372614126 379.63904688801824Q901.5299061646309 374.65303409029593 900.9128253728335 368.432859708979Q900.2957445810363 362.21268532766203 899.7527134842546 355.8197283246418Q899.209682387473 349.4267713216217 898.7653842173789 343.20659694030473Q898.3210860472849 336.9864225589878 898.3210860472849 331.8276271395622L898.3210860472849 331.8276271395622ZM929.0763927104631 313.71013509239305L929.0763927104631 313.71013509239305L919.3018329683936 313.71013509239305Q914.8588512674529 313.71013509239305 910.4158695665122 313.5126692390179L910.4158695665122 313.5126692390179Q912.538627490295 313.88291771409627 914.5132860240464 314.2284829575028L914.5132860240464 314.2284829575028Q916.9816091912356 314.77151405428447 920.0176466868785 314.77151405428447L920.0176466868785 314.77151405428447Q922.1404046106612 314.77151405428447 924.5346780828348 314.40126557920604Q926.9536347866803 314.05570033579954 929.0763927104631 313.71013509239305ZM897.4324897070968 329.3346207407011L897.4324897070968 330.9390307993741L898.3210860472849 330.9390307993741L898.3210860472849 329.3346207407011L897.4324897070968 329.3346207407011ZM994.2894907876033 330.59346555596755L994.2894907876033 330.59346555596755Q994.4869566409784 331.48206189615576 996.2641493213547 331.48206189615576L996.2641493213547 331.48206189615576L996.6097145647612 331.48206189615576Q997.6710935266525 331.48206189615576 998.041342001731 331.65484451785903L998.041342001731 331.65484451785903Q1007.2728706470187 334.4934161601267 1016.430349597291 339.92372712794304Q1025.5878285475633 345.32935486408746 1032.943431585787 352.88242375568655Q1040.3237178556828 360.43549264728574 1044.8654324833112 370.037269767652Q1049.3824638792676 379.63904688801824 1049.3824638792676 390.6477682136823L1049.3824638792676 390.6477682136823Q1049.3824638792676 400.24954533404855 1045.6552958968118 409.1355087359299Q1041.928127914356 418.0214721378112 1035.3623882896327 424.5872117625346L1035.3623882896327 424.5872117625346Q1042.1009105360592 418.737285856296 1046.0995940669059 409.92537214943036Q1050.0982775977525 401.13814167423664 1050.0982775977525 391.01801668876067L1050.0982775977525 391.01801668876067Q1050.0982775977525 379.63904688801824 1045.3097306534053 369.7657542192611Q1040.4965004773862 359.917144782176 1033.0421645124748 352.09256034218606Q1025.5878285475633 344.2679759021961 1016.430349597291 338.66488231267647Q1007.2728706470187 333.06178872315684 998.5596898668406 330.0504344591859L998.5596898668406 330.0504344591859Q1005.3228953449393 330.0504344591859 1012.3329331397568 333.06178872315684Q1019.3676541662461 336.0978262187997 1025.7606111692662 340.9851060898344Q1032.1535681722867 345.8723859608691 1037.583879140103 352.16661003720174Q1042.9895068762476 358.4855173452062 1046.7166748587033 365.0512569699297L1046.7166748587033 365.0512569699297L1045.4825132751084 366.82844965030597Q1049.0368986358612 372.1600276914347 1050.912824242925 378.3802020727517Q1052.764066618317 384.6003764540686 1052.764066618317 391.19079931046394L1052.764066618317 391.19079931046394Q1052.764066618317 403.803930694801 1047.3584388821723 413.30697488847966Q1041.928127914356 422.8100190821583 1033.659245304272 429.12892639016286Q1025.3903626941878 435.4478336981674 1015.5417532571029 438.6319705838415Q1005.6684605883457 441.84079070118753 996.9552798081678 441.84079070118753L996.9552798081678 441.84079070118753Q991.9939502421172 441.84079070118753 986.9338877493793 440.77941173929617Q981.8491420249694 439.6933495457329 976.7150298372156 437.2250263785436L976.7150298372156 437.2250263785436L976.7150298372156 438.28640534043507Q981.676359403266 441.1249769827026 986.9338877493793 442.1863559445941Q992.1667328638205 443.24773490648545 997.3255282832461 443.24773490648545L997.3255282832461 443.24773490648545Q1010.1114422892864 443.24773490648545 1022.4777413569046 437.66932454863775Q1034.819357192851 432.0662309591181 1043.359755351326 421.9214227419702L1043.359755351326 421.9214227419702Q1035.1649224362573 432.41179620252456 1022.9960892220143 438.28640534043507Q1010.8272560077713 444.13633124667354 997.6710935266525 444.13633124667354L997.6710935266525 444.13633124667354Q984.1693658021273 444.13633124667354 975.8264334970276 438.9034861322323Q967.4588179602559 433.6706410177911 962.7443207109245 426.01883919950444Q958.0545066932649 418.36703738121764 956.4500966345919 409.8513224544147Q954.8456865759189 401.3109242959399 954.8456865759189 394.57240204951324L954.8456865759189 394.57240204951324Q954.8456865759189 385.4889727942567 957.2399600480925 376.8004752457505Q959.6342335202661 368.0872944655724 964.6202463179883 360.8057411223641Q969.6062591157107 353.49950454748387 977.4061603240287 348.2666594330427Q985.2307447640187 343.03381431860146 996.2641493213547 340.8863731631468L996.2641493213547 340.8863731631468L991.1053539019291 339.65221157955216Q987.3781859194734 338.76361523936407 985.7737758608004 337.5047704240975Q984.1693658021273 336.27060884050286 984.1693658021273 335.3820125003148L984.1693658021273 335.3820125003148Q984.1693658021273 333.95038506334504 987.2794529927859 332.27192530965624Q990.3895401834442 330.59346555596755 994.2894907876033 330.59346555596755ZM985.2307447640187 351.37674662370114L986.2921237259101 352.98115668237415Q991.1053539019291 351.20396400199786 995.5483356028698 351.20396400199786L995.5483356028698 351.20396400199786Q999.9913173038104 351.20396400199786 1002.385590775984 352.5368585122801Q1004.7798642481577 353.86975302256235 1004.7798642481577 355.27669722786015L1004.7798642481577 355.27669722786015Q1004.7798642481577 356.16529356804836 1002.7311560193906 357.25135576161165Q1000.7071310222954 358.312734723503 997.5970438316368 360.163977098895Q994.4869566409784 362.03990270595875 990.8338383535382 364.8784743482264Q987.1807200660982 367.71704599049406 984.0706328754397 372.08597799641905Q980.9605456847813 376.4302267706721 978.9365206876861 382.65040115198906Q976.887812458919 388.870575533306 976.887812458919 397.2381910700776L976.887812458919 397.2381910700776Q976.887812458919 409.4810739793363 982.3921731217511 415.70124836065327Q987.8965337845831 421.9214227419702 997.6710935266525 421.9214227419702L997.6710935266525 421.9214227419702Q1003.8912679079694 421.9214227419702 1010.3829578376773 419.7986648181875Q1016.874647767385 417.67590689440465 1022.1074928818263 413.7512730585738Q1027.3650212279395 409.8513224544147 1030.6478910403011 404.14949593820756Q1033.9307608526628 398.47235265367226 1033.9307608526628 391.3635819321672L1033.9307608526628 391.3635819321672Q1033.9307608526628 386.03200389103836 1032.054835245599 380.7004258499096Q1030.203592870207 375.36884780878074 1026.9207230578454 370.48156793774604Q1023.6131700138117 365.59428806671133 1019.0961386178553 361.32408898747383Q1014.5544239902271 357.05388990823644 1009.2228459490983 354.0425356442655L1009.2228459490983 354.0425356442655Q1004.0640505296727 351.20396400199786 1000.781180717311 349.69828687001245Q997.4983109049493 348.1679265063551 996.0666834679795 346.7609823010572L996.0666834679795 346.7609823010572Q994.6597392626817 347.4767960195421 992.0679999371329 348.439442054746Q989.5009438432561 349.4267713216217 985.2307447640187 351.37674662370114L985.2307447640187 351.37674662370114ZM998.9299383419191 343.379379562008L998.2141246234343 344.61354114560254Q1006.3842743068307 347.27933016616703 1013.8386102717421 352.6109082072958L1013.8386102717421 352.6109082072958Q1020.2562505064344 357.4241383833148 1025.5878285475633 363.1012816678501L1025.5878285475633 363.1012816678501Q1020.4290331281376 357.05388990823644 1014.3816413685238 352.26534296388934L1014.3816413685238 352.26534296388934Q1007.4456532687221 346.58819967935403 998.9299383419191 343.379379562008L998.9299383419191 343.379379562008ZM1032.6965992690682 405.23555813177086L1032.6965992690682 405.23555813177086Q1030.0308102485037 410.91270141630616 1025.217580072485 415.3556831172468L1025.217580072485 415.3556831172468Q1028.426400189831 413.232925193464 1030.6478910403011 410.19688769782124Q1032.8693818907714 407.1855334338503 1034.2763260960692 404.14949593820756Q1035.707953533039 401.13814167423664 1036.423767251524 398.64513527537554L1036.423767251524 398.64513527537554Q1036.9421151166337 396.34959472988953 1037.3123635917123 394.9179672929197L1037.3123635917123 394.9179672929197Q1035.3623882896327 399.5337316155636 1032.6965992690682 405.23555813177086ZM1044.5939169349203 420.5144785366723L1044.5939169349203 420.5144785366723Q1044.421134313217 420.86004378007885 1044.0508858381386 421.2302922551572L1044.0508858381386 421.2302922551572Q1043.8781032164356 421.4030748768605 1043.7053205947323 421.4030748768605L1043.7053205947323 421.4030748768605Q1043.5325379730289 421.4030748768605 1044.5939169349203 419.5271492697966Q1045.6552958968118 417.67590689440465 1047.1609730287973 415.08416756885595Q1048.6913333924545 412.5171114749792 1050.0982775977525 409.6785398327115L1050.0982775977525 409.6785398327115Q1051.3571224130192 407.53109867725686 1051.875470278129 405.92668861858385L1051.875470278129 405.92668861858385Q1049.3824638792676 413.57849043687054 1044.5939169349203 420.5144785366723ZM1054.5412592986931 391.70914717557366L1054.5412592986931 391.70914717557366Q1054.5412592986931 394.57240204951324 1054.1956940552868 397.3122407650933Q1053.8254455802082 400.07676271234527 1052.93684924002 402.3723032578313L1052.93684924002 402.3723032578313Q1054.1956940552868 397.9293215568906 1054.1956940552868 392.4249608940586L1054.1956940552868 392.4249608940586Q1054.1956940552868 388.3522276681963 1053.4798803368017 384.42759383236535L1053.4798803368017 384.42759383236535Q1052.93684924002 381.04599109331605 1052.0482528998318 377.86185420764195L1052.0482528998318 377.86185420764195Q1052.93684924002 381.04599109331605 1053.652662958505 384.25481121066207L1053.652662958505 384.25481121066207Q1054.5412592986931 387.80919657141465 1054.5412592986931 391.70914717557366ZM996.9552798081678 344.4407585238994L998.2141246234343 341.7749695033349L996.6097145647612 341.0591557848501Q996.4369319430579 341.42940425992845 996.0666834679795 341.7749695033349Q995.7211182245732 342.14521797841337 995.7211182245732 342.4907832218198L995.7211182245732 342.4907832218198Q995.7211182245732 342.83634846522637 996.1654163946671 343.4781124886955Q996.6097145647612 344.0951932804928 996.9552798081678 344.4407585238994L996.9552798081678 344.4407585238994ZM1026.6492075094543 364.3601264831167L1026.6492075094543 364.3601264831167Q1026.106176412673 363.64431276463176 1025.5878285475633 363.1012816678501L1025.5878285475633 363.1012816678501Q1026.106176412673 363.81709538633504 1026.6492075094543 364.3601264831167ZM1051.875470278129 405.92668861858385L1051.875470278129 405.92668861858385Q1052.0482528998318 405.5811233751773 1052.0482528998318 405.23555813177086L1052.0482528998318 405.23555813177086Q1052.0482528998318 405.5811233751773 1051.875470278129 405.92668861858385ZM1052.2457187532073 404.8653096566924L1052.2457187532073 404.8653096566924Q1052.0482528998318 405.03809227839565 1052.0482528998318 405.23555813177086L1052.0482528998318 405.23555813177086Q1052.0482528998318 405.03809227839565 1052.2457187532073 404.8653096566924ZM1164.8999881037248 304.10835797202685L1164.381640238615 307.8355259544826Q1164.7272054820216 312.9943213739082 1164.8999881037248 317.8816012449429Q1165.0974539571 322.76888111597765 1165.0974539571 327.9276765354032L1165.0974539571 327.9276765354032Q1165.0974539571 338.5908326176608 1164.4556899336308 349.3280383949341Q1163.8386091418336 360.0899274038793 1162.9500128016455 371.09864872954336Q1162.0614164614572 382.13205328687934 1161.172820121269 393.68380570932504Q1160.284223781081 405.23555813177086 1159.568410062596 417.67590689440465L1159.568410062596 417.67590689440465Q1159.568410062596 419.6258821964842 1159.4943603675804 421.67459042525127Q1159.395627440893 423.6986154223465 1159.0500621974863 426.1916218212076L1159.0500621974863 426.1916218212076L1159.0500621974863 428.33906297666226Q1159.0500621974863 428.8574108417721 1158.679813722408 429.7460071819602Q1158.3342484790014 430.63460352214827 1157.988683235595 431.00485199722675L1157.988683235595 431.00485199722675Q1155.6684594584372 433.6706410177911 1153.7925338513733 435.00353552807326Q1151.9412914759814 436.3364300383555 1150.3368814173082 436.9535108301528Q1148.7324713586354 437.57059162195014 1147.3255271533374 437.66932454863775Q1145.8938997163677 437.7433742436534 1144.462272279398 437.9161568653566L1144.462272279398 437.9161568653566L1145.5483344729612 437.9161568653566Q1146.0666823380707 437.9161568653566 1147.5723594700562 437.7433742436534Q1149.1027198337138 437.57059162195014 1150.9539622091056 437.1262934518561Q1152.8298878161695 436.68199528176194 1154.5083475698582 435.89213186826146Q1156.2114905552187 435.07758522308893 1156.9026210420316 433.6706410177911L1156.9026210420316 433.6706410177911L1158.5070311007048 430.4618209004451Q1159.568410062596 428.51184559836554 1159.839925610987 426.2903547478952Q1160.1114411593778 424.0688638974249 1160.2101740860653 421.84737304695454Q1160.284223781081 419.6258821964842 1160.284223781081 417.47844104102955Q1160.284223781081 415.3556831172468 1160.6544722561594 413.40570781516726L1160.6544722561594 413.40570781516726Q1161.172820121269 402.199520636128 1162.1601493881449 391.01801668876067Q1163.1227954233486 379.8118295097214 1164.0113917635367 368.432859708979Q1164.8999881037248 357.05388990823644 1165.6158018222097 345.42808779077507Q1166.3316155406947 333.77760244164176 1166.3316155406947 321.7075021540862L1166.3316155406947 321.7075021540862Q1166.3316155406947 317.95565093995856 1166.232882614007 314.4999985058936Q1166.1588329189913 311.0443460718286 1165.9860502972883 307.8355259544826L1165.9860502972883 307.8355259544826Q1166.504398162398 308.5513396729675 1167.1214789541955 310.0570168049529Q1167.7632429776645 311.56269393693844 1168.1088082210708 314.77151405428447L1168.1088082210708 314.77151405428447Q1168.9974045612591 316.7214893563639 1169.1701871829623 319.04171313352185Q1169.3429698046655 321.33725367900786 1169.713218279744 323.830260077869L1169.713218279744 323.830260077869Q1169.713218279744 335.9250435970964 1168.824621939556 347.20528047115135Q1167.936025599368 358.4855173452062 1167.0474292591796 369.69170452424544L1167.0474292591796 369.69170452424544L1165.4430192005066 370.21005238935527L1163.8386091418336 400.595110577455Q1163.8386091418336 413.40570781516726 1162.6784972532546 421.67459042525127Q1161.5430685963474 429.91878980366346 1160.6544722561594 432.58457882422783L1160.6544722561594 432.58457882422783L1160.6544722561594 433.1276099210095Q1157.988683235595 435.79339894157386 1156.1127576285312 437.1262934518561Q1154.2368320214673 438.45918796213823 1152.657105194466 439.17500168062315Q1151.052695135793 439.8908153991081 1149.719800625511 439.96486509412375Q1148.3869061152288 440.06359802081124 1146.955278678259 440.06359802081124L1146.955278678259 440.06359802081124L1135.5763088775166 440.06359802081124Q1130.7877619331693 439.5205669240296 1125.2834012703374 439.6192998507172Q1119.7790406075053 439.6933495457329 1113.7316488478914 438.45918796213823Q1107.6842570882777 437.2250263785436 1101.3653497802734 433.30039254271276Q1095.0711257039407 429.4004419385536 1088.6781687009207 420.86004378007885L1088.6781687009207 420.86004378007885Q1088.6781687009207 421.2302922551572 1088.4807028475452 421.4030748768605Q1088.3079202258423 421.57585749856366 1088.135137604139 421.9214227419702L1088.135137604139 421.9214227419702Q1094.0097467420492 429.91878980366346 1102.2539461204615 435.07758522308893Q1110.5228287305456 440.2363806425145 1120.1246058509116 441.1249769827026L1120.1246058509116 441.1249769827026L1135.0579610124068 441.1249769827026Q1137.1807189361896 441.47054222610916 1139.4022097866598 441.56927515279676Q1141.6237006371302 441.66800807948425 1144.2894896576945 441.66800807948425L1144.2894896576945 441.66800807948425Q1146.955278678259 441.66800807948425 1151.324210684184 440.95219436099944Q1155.6684594584372 440.2363806425145 1159.568410062596 436.3364300383555L1159.568410062596 436.3364300383555Q1160.284223781081 435.4478336981674 1160.5557393294719 435.00353552807326Q1160.8272548778627 434.5592373579792 1161.172820121269 433.6706410177911L1161.172820121269 433.6706410177911L1161.7158512180508 432.58457882422783Q1162.604447558239 431.00485199722675 1163.048745728333 429.30170901186614Q1163.493043898427 427.62324925817745 1163.8386091418336 426.01883919950444L1163.8386091418336 426.01883919950444Q1163.8386091418336 427.9688145015839 1163.5670935934427 429.4004419385536Q1163.3202612767236 430.80738614385155 1162.2341990831605 433.6706410177911L1162.2341990831605 433.6706410177911L1161.7158512180508 434.18898888290084L1159.568410062596 437.39780900024687Q1157.988683235595 439.0022190589199 1156.0140247018435 439.8908153991081Q1154.064049399764 440.77941173929617 1152.2868567193877 441.2237099093902Q1150.5096640390116 441.66800807948425 1149.003986907026 441.84079070118753Q1147.4983097750405 442.0135733228908 1146.7824960565558 442.1863559445941L1146.7824960565558 442.1863559445941L1140.9078869186453 442.1863559445941Q1138.6123463731592 442.1863559445941 1137.106669241174 442.1123062495784Q1135.5763088775166 442.0135733228908 1134.7864454640157 441.9148403962032Q1133.9965820505154 441.84079070118753 1133.4535509537338 441.66800807948425L1133.4535509537338 441.66800807948425L1128.121972912605 441.66800807948425Q1126.5175628539318 441.66800807948425 1124.913152795259 441.7420577744999Q1123.3334259682579 441.84079070118753 1121.5562332878817 441.84079070118753L1121.5562332878817 441.84079070118753Q1113.18861775111 441.84079070118753 1105.2899836161043 437.8421071703409Q1097.3666662494268 433.8434236394943 1090.702193698016 426.561870296286Q1084.0377211466048 419.25563372140584 1078.9036089588512 409.30829135763304Q1073.7448135394256 399.36094899386035 1071.0790245188614 387.266165474633L1071.0790245188614 387.266165474633Q1071.0790245188614 385.31619017255343 1070.8075089704703 383.53899749217726Q1070.5359934220796 381.76180481180097 1070.5359934220796 379.8118295097214L1070.5359934220796 379.8118295097214Q1070.5359934220796 373.246089884998 1072.5847016508465 366.3841514802118Q1074.6334098796137 359.54689630709765 1079.9649879207425 354.0425356442655Q1085.2965659618712 348.5381749814335 1094.355311985456 345.0578393156967Q1103.4140580090404 341.6021868816317 1117.2860342086442 341.6021868816317L1117.2860342086442 341.6021868816317Q1123.6789912116642 341.6021868816317 1129.7263829712779 341.8737024300225Q1135.7737747308915 342.14521797841337 1141.9939491122086 342.4907832218198L1141.9939491122086 342.4907832218198Q1141.2781353937237 343.03381431860146 1141.2781353937237 343.72494480541445L1141.2781353937237 343.72494480541445Q1141.2781353937237 344.61354114560254 1141.6237006371302 345.2553051690718Q1141.9939491122086 345.8723859608691 1141.9939491122086 346.58819967935403L1141.9939491122086 346.58819967935403Q1141.9939491122086 347.4767960195421 1140.6610546019265 348.09387681133944Q1139.3281600916441 348.71095760313676 1135.0579610124068 348.71095760313676L1135.0579610124068 348.71095760313676Q1133.626333575437 348.71095760313676 1131.7750912000452 348.61222467644916Q1129.8991655929813 348.5381749814335 1127.5789418158233 348.3653923597302L1127.5789418158233 348.3653923597302L1127.5789418158233 349.9451191867314Q1136.1193399742983 351.20396400199786 1141.3521850887394 353.25267223076503Q1146.6097134348524 355.27669722786015 1147.8438750184473 356.88110728653317L1147.8438750184473 356.88110728653317L1148.2141234935257 357.25135576161165L1148.9052539803386 349.4267713216217Q1149.44828507712 344.61354114560254 1149.44828507712 338.5908326176608L1149.44828507712 338.5908326176608Q1149.44828507712 332.37065823634384 1149.1027198337138 326.32326647673017Q1148.7324713586354 320.2758747171165 1148.7324713586354 316.8942719780672L1148.7324713586354 316.8942719780672Q1148.7324713586354 312.6240728988298 1149.275502455417 311.2171286935319Q1149.7938503205266 309.78550125656216 1150.682446660715 309.78550125656216L1150.682446660715 309.78550125656216Q1151.3982603791997 309.78550125656216 1151.8425585492937 312.8215387522049Q1152.2868567193877 315.83289301617583 1152.5583722677786 319.6587939253192Q1152.8298878161695 323.4846948344625 1152.8298878161695 327.21186281691826L1152.8298878161695 327.21186281691826L1152.8298878161695 332.37065823634384Q1152.8298878161695 337.5047704240975 1152.657105194466 342.7622987702107Q1152.4596393410911 347.99514388465184 1152.1140740976846 353.1539393040774L1152.1140740976846 353.1539393040774Q1152.657105194466 346.3907338259788 1153.0026704378727 339.92372712794304Q1153.3482356812792 333.4320371982352 1153.3482356812792 326.66883172013667L1153.3482356812792 326.66883172013667Q1153.3482356812792 322.59609849427443 1153.1754530595758 318.5974149634278Q1153.0026704378727 314.5987314325812 1152.657105194466 310.501314975047L1152.657105194466 310.501314975047Q1153.7184841563576 311.56269393693844 1154.2368320214673 311.56269393693844L1154.2368320214673 311.56269393693844Q1154.9526457399522 311.56269393693844 1155.3228942150306 310.501314975047L1155.3228942150306 310.501314975047Q1155.1254283616554 309.06968753807723 1154.9526457399522 307.48996071107615L1154.9526457399522 307.48996071107615Q1154.779863118249 306.0583332741063 1154.779863118249 304.62670583713657L1154.779863118249 304.62670583713657L1154.779863118249 301.9609168165722Q1155.6684594584372 299.8381588927894 1157.100086895407 298.67804700421044Q1158.5070311007048 297.51793511563153 1159.568410062596 297.51793511563153L1159.568410062596 297.51793511563153Q1162.604447558239 297.51793511563153 1164.8999881037248 304.10835797202685L1164.8999881037248 304.10835797202685ZM1135.5763088775166 361.15130636577067L1135.5763088775166 361.15130636577067Q1129.7263829712779 361.4968716091771 1122.346096701382 361.8671200842555Q1114.9658104314863 362.21268532766203 1108.4000708067629 363.71836245964744Q1101.8096479503674 365.2487228233048 1097.119833932708 368.2600770872757Q1092.4053366833764 371.27143135124663 1091.8623055865946 376.6030093923754L1091.8623055865946 376.6030093923754Q1091.8623055865946 382.4776185302858 1094.355311985456 389.7591718734941Q1096.8483183843168 397.0407252167025 1100.9210516101793 403.53241514641024Q1105.0184680677135 410.02410507611796 1110.2513131821547 414.6398693987619Q1115.5088415282678 419.25563372140584 1121.185984812803 419.7986648181875L1121.185984812803 419.7986648181875L1131.330793029951 419.7986648181875Q1132.2193893701392 419.7986648181875 1132.6636875402332 419.897397744875Q1133.1079857103273 419.97144743989065 1133.9965820505154 420.341695914969L1133.9965820505154 420.341695914969L1138.2420978980808 420.341695914969Q1140.9078869186453 420.86004378007885 1143.5736759392098 420.86004378007885L1143.5736759392098 420.86004378007885Q1143.5736759392098 405.92668861858385 1144.906570449492 390.20347004358825Q1146.239464959774 374.48025146859266 1147.8438750184473 359.3741136853944L1147.8438750184473 359.3741136853944Q1145.5483344729612 361.15130636577067 1135.5763088775166 361.15130636577067ZM1148.3869061152288 397.9293215568906L1148.3869061152288 397.9293215568906Q1148.3869061152288 399.903980090642 1148.115390566838 401.92800508773723Q1147.8438750184473 403.9767133165043 1147.8438750184473 406.4697197153655L1147.8438750184473 406.4697197153655Q1149.7938503205266 396.5223773515927 1150.164098795605 385.4889727942567Q1150.5096640390116 374.48025146859266 1151.052695135793 364.3601264831167L1151.052695135793 364.3601264831167Q1150.164098795605 372.87584140991964 1149.719800625511 381.14472402000365Q1149.275502455417 389.41360663008766 1148.3869061152288 397.9293215568906ZM1163.8386091418336 417.132875797623L1163.8386091418336 417.132875797623Q1163.8386091418336 415.18290049554355 1164.0113917635367 413.1341922667765Q1164.208857616912 411.0854840380093 1164.5544228603185 408.7899434925233L1164.5544228603185 408.7899434925233Q1164.381640238615 414.1215215336522 1164.381640238615 418.8113355513118Q1164.381640238615 423.52583280064323 1163.8386091418336 425.4758081027228L1163.8386091418336 425.4758081027228Q1163.8386091418336 424.5872117625346 1163.937342068521 423.797348349034Q1164.0113917635367 423.0074849355335 1164.0113917635367 422.1188885953453L1164.0113917635367 422.1188885953453Q1164.0113917635367 420.6872611583756 1163.937342068521 419.45309957478094Q1163.8386091418336 418.1942547595145 1163.8386091418336 417.132875797623ZM1166.1588329189913 381.93458743350425L1166.504398162398 388.3522276681963Q1166.1588329189913 389.2408240083844 1165.9860502972883 390.3762526652914Q1165.788584443913 391.5363645538704 1165.4430192005066 392.79520936913696L1165.4430192005066 392.79520936913696L1166.1588329189913 381.93458743350425ZM1165.2702365788032 394.57240204951324L1164.8999881037248 402.199520636128Q1164.8999881037248 403.803930694801 1164.8259384087091 405.408340753474Q1164.7272054820216 407.01275081214703 1164.5544228603185 408.41969501744495L1164.5544228603185 408.41969501744495Q1164.5544228603185 404.8653096566924 1164.7272054820216 401.23687460092424Q1164.8999881037248 397.58375631348406 1165.2702365788032 394.57240204951324L1165.2702365788032 394.57240204951324ZM1147.3255271533374 409.6785398327115L1147.3255271533374 413.232925193464Q1147.4983097750405 412.5171114749792 1147.4983097750405 411.80129775649425Q1147.4983097750405 411.0854840380093 1147.8438750184473 410.19688769782124L1147.8438750184473 410.19688769782124L1147.8438750184473 408.2469123957417Q1147.671092396744 408.5924776391482 1147.671092396744 408.863993187539Q1147.671092396744 409.1355087359299 1147.4983097750405 409.30829135763304L1147.4983097750405 409.30829135763304L1147.3255271533374 409.6785398327115ZM1146.6097134348524 421.4030748768605L1146.7824960565558 421.74864012026694Q1146.955278678259 420.14423006159393 1147.1280612999622 418.46577030790525Q1147.3255271533374 416.78731055421656 1147.3255271533374 415.0101178738403L1147.3255271533374 415.0101178738403L1147.3255271533374 414.4670867770586L1146.6097134348524 421.4030748768605ZM1225.1517566148145 330.59346555596755L1225.1517566148145 330.59346555596755Q1225.324539236518 331.48206189615576 1227.101731916894 331.48206189615576L1227.101731916894 331.48206189615576L1227.471980391973 331.48206189615576Q1228.533359353864 331.48206189615576 1228.8789245972707 331.65484451785903L1228.8789245972707 331.65484451785903Q1238.1351364742304 334.4934161601267 1247.2926154245024 339.92372712794304Q1256.4254111431028 345.32935486408746 1263.8056974129986 352.88242375568655Q1271.1859836828944 360.43549264728574 1275.7276983105226 370.037269767652Q1280.2447297064791 379.63904688801824 1280.2447297064791 390.6477682136823L1280.2447297064791 390.6477682136823Q1280.2447297064791 400.24954533404855 1276.5175617240234 409.1355087359299Q1272.7903937415676 418.0214721378112 1266.1999708851722 424.5872117625346L1266.1999708851722 424.5872117625346Q1272.9631763632706 418.737285856296 1276.9618598941174 409.92537214943036Q1280.9605434249638 401.13814167423664 1280.9605434249638 391.01801668876067L1280.9605434249638 391.01801668876067Q1280.9605434249638 379.63904688801824 1276.1719964806166 369.7657542192611Q1271.3587663045978 359.917144782176 1263.9044303396863 352.09256034218606Q1256.4254111431028 344.2679759021961 1247.2926154245024 338.66488231267647Q1238.1351364742304 333.06178872315684 1229.421955694052 330.0504344591859L1229.421955694052 330.0504344591859Q1236.1851611721509 330.0504344591859 1243.1951989669683 333.06178872315684Q1250.2052367617857 336.0978262187997 1256.6228769964778 340.9851060898344Q1263.0158339994982 345.8723859608691 1268.4214617356424 352.16661003720174Q1273.8517727034587 358.4855173452062 1277.5789406859144 365.0512569699297L1277.5789406859144 365.0512569699297L1276.34477910232 366.82844965030597Q1279.8991644630723 372.1600276914347 1281.7504068384646 378.3802020727517Q1283.6263324455285 384.6003764540686 1283.6263324455285 391.19079931046394L1283.6263324455285 391.19079931046394Q1283.6263324455285 403.803930694801 1278.1960214777118 413.30697488847966Q1272.7903937415676 422.8100190821583 1264.5215111314837 429.12892639016286Q1256.2526285213994 435.4478336981674 1246.4040190843143 438.6319705838415Q1236.5307264155572 441.84079070118753 1227.8175456353792 441.84079070118753L1227.8175456353792 441.84079070118753Q1222.8562160693286 441.84079070118753 1217.7714703449187 440.77941173929617Q1212.7114078521809 439.6933495457329 1207.5526124327553 437.2250263785436L1207.5526124327553 437.2250263785436L1207.5526124327553 438.28640534043507Q1212.5386252304775 441.1249769827026 1217.7714703449187 442.1863559445941Q1223.028998691032 443.24773490648545 1228.1877941104576 443.24773490648545L1228.1877941104576 443.24773490648545Q1240.973708116498 443.24773490648545 1253.3153239524445 437.66932454863775Q1265.6816230200625 432.0662309591181 1274.1973379468654 421.9214227419702L1274.1973379468654 421.9214227419702Q1266.0271882634688 432.41179620252456 1253.8583550492258 438.28640534043507Q1241.6895218349828 444.13633124667354 1228.533359353864 444.13633124667354L1228.533359353864 444.13633124667354Q1215.0316316293388 444.13633124667354 1206.6640160925672 438.9034861322323Q1198.3210837874676 433.6706410177911 1193.606586538136 426.01883919950444Q1188.8920892888045 418.36703738121764 1187.3123624618033 409.8513224544147Q1185.7079524031305 401.3109242959399 1185.7079524031305 394.57240204951324L1185.7079524031305 394.57240204951324Q1185.7079524031305 385.4889727942567 1188.1022258753042 376.8004752457505Q1190.4964993474775 368.0872944655724 1195.4825121452 360.8057411223641Q1200.4438417112503 353.49950454748387 1208.2684261512404 348.2666594330427Q1216.0930105912303 343.03381431860146 1227.101731916894 340.8863731631468L1227.101731916894 340.8863731631468L1221.9676197291406 339.65221157955216Q1218.2157685150128 338.76361523936407 1216.636041688012 337.5047704240975Q1215.0316316293388 336.27060884050286 1215.0316316293388 335.3820125003148L1215.0316316293388 335.3820125003148Q1215.0316316293388 333.95038506334504 1218.141718819997 332.27192530965624Q1221.2518060106559 330.59346555596755 1225.1517566148145 330.59346555596755ZM1216.0930105912303 351.37674662370114L1217.1543895531217 352.98115668237415Q1221.9676197291406 351.20396400199786 1226.4106014300814 351.20396400199786L1226.4106014300814 351.20396400199786Q1230.8535831310219 351.20396400199786 1233.2478566031955 352.5368585122801Q1235.642130075369 353.86975302256235 1235.642130075369 355.27669722786015L1235.642130075369 355.27669722786015Q1235.642130075369 356.16529356804836 1233.5934218466018 357.25135576161165Q1231.544713617835 358.312734723503 1228.4346264271767 360.163977098895Q1225.324539236518 362.03990270595875 1221.69610418075 364.8784743482264Q1218.0429858933098 367.71704599049406 1214.932898702651 372.08597799641905Q1211.8228115119928 376.4302267706721 1209.774103283226 382.65040115198906Q1207.7500782861307 388.870575533306 1207.7500782861307 397.2381910700776L1207.7500782861307 397.2381910700776Q1207.7500782861307 409.4810739793363 1213.2544389489626 415.70124836065327Q1218.7587996117945 421.9214227419702 1228.533359353864 421.9214227419702L1228.533359353864 421.9214227419702Q1234.753533735181 421.9214227419702 1241.2452236648887 419.7986648181875Q1247.7369135945964 417.67590689440465 1252.9697587090377 413.7512730585738Q1258.202603823479 409.8513224544147 1261.5101568675127 404.14949593820756Q1264.7930266798744 398.47235265367226 1264.7930266798744 391.3635819321672L1264.7930266798744 391.3635819321672Q1264.7930266798744 386.03200389103836 1262.9171010728105 380.7004258499096Q1261.0658586974187 375.36884780878074 1257.758305653385 370.48156793774604Q1254.4754358410232 365.59428806671133 1249.9584044450667 361.32408898747383Q1245.4166898174385 357.05388990823644 1240.0851117763095 354.0425356442655L1240.0851117763095 354.0425356442655Q1234.9263163568844 351.20396400199786 1231.6434465445227 349.69828687001245Q1228.360576732161 348.1679265063551 1226.9289492951912 346.7609823010572L1226.9289492951912 346.7609823010572Q1225.5220050898934 347.4767960195421 1222.9302657643443 348.439442054746Q1220.3632096704678 349.4267713216217 1216.0930105912303 351.37674662370114L1216.0930105912303 351.37674662370114ZM1229.7675209374588 343.379379562008L1229.0763904506457 344.61354114560254Q1237.2465401340423 347.27933016616703 1244.7008760989538 352.6109082072958L1244.7008760989538 352.6109082072958Q1251.0938331019738 357.4241383833148 1256.4254111431028 363.1012816678501L1256.4254111431028 363.1012816678501Q1251.2912989553492 357.05388990823644 1245.2439071957356 352.26534296388934L1245.2439071957356 352.26534296388934Q1238.3079190959334 346.58819967935403 1229.7675209374588 343.379379562008L1229.7675209374588 343.379379562008ZM1263.534181864608 405.23555813177086L1263.534181864608 405.23555813177086Q1260.8683928440432 410.91270141630616 1256.0798458996965 415.3556831172468L1256.0798458996965 415.3556831172468Q1259.2886660170425 413.232925193464 1261.5101568675127 410.19688769782124Q1263.731647717983 407.1855334338503 1265.1385919232807 404.14949593820756Q1266.5702193602506 401.13814167423664 1267.2860330787357 398.64513527537554L1267.2860330787357 398.64513527537554Q1267.8043809438454 396.34959472988953 1268.1746294189234 394.9179672929197L1268.1746294189234 394.9179672929197Q1266.1999708851722 399.5337316155636 1263.534181864608 405.23555813177086ZM1275.456182762132 420.5144785366723L1275.456182762132 420.5144785366723Q1275.2834001404285 420.86004378007885 1274.9131516653501 421.2302922551572L1274.9131516653501 421.2302922551572Q1274.7403690436472 421.4030748768605 1274.5675864219438 421.4030748768605L1274.5675864219438 421.4030748768605Q1274.3948038002404 421.4030748768605 1275.456182762132 419.5271492697966Q1276.5175617240234 417.67590689440465 1278.023238856009 415.08416756885595Q1279.528915987994 412.5171114749792 1280.9605434249638 409.6785398327115L1280.9605434249638 409.6785398327115Q1282.1947050085587 407.53109867725686 1282.7377361053404 405.92668861858385L1282.7377361053404 405.92668861858385Q1280.2447297064791 413.57849043687054 1275.456182762132 420.5144785366723ZM1285.4035251259047 391.70914717557366L1285.4035251259047 391.70914717557366Q1285.4035251259047 394.57240204951324 1285.057959882498 397.3122407650933Q1284.6877114074196 400.07676271234527 1283.7991150672315 402.3723032578313L1283.7991150672315 402.3723032578313Q1285.057959882498 397.9293215568906 1285.057959882498 392.4249608940586L1285.057959882498 392.4249608940586Q1285.057959882498 388.3522276681963 1284.3421461640132 384.42759383236535L1284.3421461640132 384.42759383236535Q1283.7991150672315 381.04599109331605 1282.9105187270434 377.86185420764195L1282.9105187270434 377.86185420764195Q1283.7991150672315 381.04599109331605 1284.5149287857166 384.25481121066207L1284.5149287857166 384.25481121066207Q1285.4035251259047 387.80919657141465 1285.4035251259047 391.70914717557366ZM1227.8175456353792 344.4407585238994L1229.0763904506457 341.7749695033349L1227.471980391973 341.0591557848501Q1227.2991977702695 341.42940425992845 1226.9289492951912 341.7749695033349Q1226.5833840517844 342.14521797841337 1226.5833840517844 342.4907832218198L1226.5833840517844 342.4907832218198Q1226.5833840517844 342.83634846522637 1227.0276822218789 343.4781124886955Q1227.471980391973 344.0951932804928 1227.8175456353792 344.4407585238994L1227.8175456353792 344.4407585238994ZM1257.5114733366659 364.3601264831167L1257.5114733366659 364.3601264831167Q1256.9684422398846 363.64431276463176 1256.4254111431028 363.1012816678501L1256.4254111431028 363.1012816678501Q1256.9684422398846 363.81709538633504 1257.5114733366659 364.3601264831167ZM1282.7377361053404 405.92668861858385L1282.7377361053404 405.92668861858385Q1282.9105187270434 405.5811233751773 1282.9105187270434 405.23555813177086L1282.9105187270434 405.23555813177086Q1282.9105187270434 405.5811233751773 1282.7377361053404 405.92668861858385ZM1283.0833013487468 404.8653096566924L1283.0833013487468 404.8653096566924Q1282.9105187270434 405.03809227839565 1282.9105187270434 405.23555813177086L1282.9105187270434 405.23555813177086Q1282.9105187270434 405.03809227839565 1283.0833013487468 404.8653096566924Z " fill="green" transform="matrix(0.6807200681473536,0,0,0.6807200681473535,0,46.41954124368246)"/></g></svg>